<?xml version="1.0" encoding="utf-8"?>
<!-- Generator: Adobe Illustrator 24.1.0, SVG Export Plug-In . SVG Version: 6.00 Build 0)  -->
<svg version="1.1" id="Capa_1" xmlns="http://www.w3.org/2000/svg" xmlns:xlink="http://www.w3.org/1999/xlink" x="0px" y="0px"
	 viewBox="0 0 55 35.8" style="enable-background:new 0 0 55 35.8;" xml:space="preserve">
<style type="text/css">
	.st0{fill:#FBA706;}
</style>
<g id="Capa_2_1_">
	<g id="Objects">
		<path class="st0" d="M0.4,21c1.8,8.1,10.5,14.2,18.7,13c4.1-0.6,7.6-2.7,10.8-4.8c0.6-0.4,1.1-0.8,1.7-1.2
			c2.2-1.7,4.7-3.1,7.2-4.3c3.2-1.3,6.4-1.4,8.7-0.3c2.1,1.1,3.8,4,2.8,6.2c-0.6,1-1.6,1.7-2.8,1.7c-0.8,0.1-1.6-0.2-2.1-0.8
			c0-0.1-0.1-0.1-0.1-0.2c-0.7-1-2.1-1.3-3.1-0.5c-1,0.7-1.3,2.1-0.5,3.1c1.2,1.8,3.3,2.9,5.5,2.8h0.7c2.8-0.2,5.3-1.9,6.5-4.4
			c2-4.7-1-10-5-12c-3.4-1.8-8-1.7-12.4,0.1c-2.8,1.3-5.5,2.9-8,4.8l-0.1,0.1c-0.5,0.3-1,0.7-1.5,1c-2.7,1.9-5.7,3.6-8.9,4.1
			C12.4,30.4,6,25.9,4.8,20S7.3,7.3,13,5.2c2.9-1.1,6.2-1,9,0.5c2.6,1.4,4.3,4.2,4.2,7.2C26,15.7,24,18,21.3,18.6
			c-1.2,0.2-2.3-0.2-3.2-1c-0.6-0.6-0.7-1.5-0.2-2.3c0-0.1,0.1-0.1,0.1-0.2c0.7-1,0.6-2.4-0.4-3.2c-1-0.7-2.4-0.6-3.2,0.4
			c-1.9,2.4-1.7,5.8,0.3,8.1c1.8,1.9,4.5,2.8,7.1,2.4c4.9-0.9,8.5-5,8.8-9.9c0.1-4.7-2.4-9.1-6.5-11.3C20.3-0.3,15.7-0.6,11.5,1
			C3.6,3.9-1.4,12.8,0.4,21z"/>
	</g>
</g>
</svg>
