<?xml version="1.0" encoding="utf-8"?>
<!-- Generator: Adobe Illustrator 24.1.0, SVG Export Plug-In . SVG Version: 6.00 Build 0)  -->
<svg version="1.1" id="Capa_1" xmlns="http://www.w3.org/2000/svg" xmlns:xlink="http://www.w3.org/1999/xlink" x="0px" y="0px"
	 viewBox="0 0 55 35.8" style="enable-background:new 0 0 55 35.8;" xml:space="preserve">
<style type="text/css">
	.st0{fill:#FBA706;}
</style>
<g id="Capa_2_1_">
	<g id="Objects">
		<path class="st0" d="M43.5,1c-4.2-1.6-8.8-1.3-12.7,0.8c-4.1,2.3-6.6,6.6-6.5,11.3c0.3,4.9,3.9,9.1,8.8,9.9
			c2.6,0.4,5.3-0.5,7.1-2.4c2-2.3,2.2-5.7,0.3-8.1c-0.7-1-2.2-1.2-3.2-0.4c-1,0.7-1.2,2.2-0.4,3.2c0,0.1,0.1,0.1,0.1,0.2
			c0.4,0.7,0.3,1.6-0.2,2.3c-0.8,0.8-2,1.2-3.2,1C31,18,29,15.7,28.8,12.9c-0.1-3,1.6-5.8,4.2-7.2c2.8-1.4,6.1-1.6,9-0.5
			c5.8,2.1,9.5,8.8,8.3,14.7s-7.7,10.4-13.6,9.5c-3.2-0.5-6.2-2.3-8.9-4.1c-0.5-0.3-1-0.7-1.5-1l-0.1-0.1c-2.5-1.9-5.2-3.5-8-4.8
			c-4.4-1.8-9-1.9-12.4-0.1c-4,2-7,7.3-5,12c1.2,2.6,3.7,4.3,6.5,4.4h0.7c2.2,0.1,4.3-1,5.5-2.8c0.7-1,0.5-2.4-0.5-3.1
			c-1-0.7-2.4-0.5-3.1,0.5c0,0.1-0.1,0.1-0.1,0.2c-0.5,0.6-1.3,0.9-2.1,0.8c-1.2-0.1-2.2-0.7-2.8-1.7c-1-2.2,0.7-5.1,2.8-6.2
			c2.3-1.2,5.5-1.1,8.7,0.3c2.5,1.2,4.9,2.6,7.2,4.3c0.6,0.4,1.1,0.8,1.7,1.2c3.2,2.1,6.7,4.2,10.8,4.8c8.2,1.2,16.9-4.9,18.7-13
			S51.4,3.9,43.5,1z"/>
	</g>
</g>
</svg>
